<svg width="584" height="893" viewBox="0 0 584 893" fill="none" xmlns="http://www.w3.org/2000/svg">
<g clip-path="url(#clip0_1_107)">
<path d="M581.268 132.052C579.246 154.604 569.967 175.416 554.914 192.423C530.241 220.29 517.34 225.584 505.899 263.502L503.951 278.198C505.95 306.194 509.018 327.633 528.372 350.284C583.028 414.274 687.146 378.43 701.601 298.5C705.559 276.657 699.717 235.689 713.454 218.445C724.633 204.405 742.116 197.069 759.676 201.205C777.582 205.43 790.496 222.727 792.376 240.748C792.719 244.033 793.089 249.413 790.946 252.095C792.641 260.88 767.658 299.811 762.852 310.994C747.788 346.098 749.713 393.928 786.515 414.822C808.696 427.416 833.017 424.741 855.747 414.314C878.979 403.671 899.231 382.663 926.49 385.982C932.231 384.166 937.806 387.25 942.943 388.794C1010.64 409.052 1004.94 502.721 936.239 517.032C916.038 521.232 889.372 511.534 869.37 506.779L852.214 504.505C816.564 504.27 784.408 514.414 770.626 550.708C760.834 576.499 769.361 600.944 771.407 626.843C776.322 689.245 695.551 700.485 680.875 643.498C678.68 634.983 677.665 616.467 679.591 608.12C678.54 606.771 679.048 605.472 679.178 604.017C681.527 577.89 687.65 552.012 686.79 525.576C685.376 482.22 663.206 441.298 619.632 428.097C561.257 410.41 524.528 462.497 527.058 515.917C527.908 533.781 535.856 553.469 536.281 570.414C542.123 585.291 537.637 626.108 513.532 612.797C497.775 604.104 492.449 590.095 488.448 574.032C485.501 562.231 483.914 550.243 481.033 538.577C481.033 538.577 461.517 437.497 359.325 408.281C320.034 401.716 278.715 410.298 243.71 429.235C184.812 461.105 97.1882 549.981 128.539 623.816C148.149 670.005 190.708 682.219 235.001 664.377C254.255 656.613 276.21 639.333 296.871 639.516C302.796 639.565 305.687 640.285 306.298 646.781C307.664 661.464 290.178 689.769 285.208 705.683C263.511 775.116 324.014 812.528 386.198 807.353C411.898 805.218 453.59 789.629 477 799.294C499.265 808.481 507.829 839.546 489.816 856.833C466.765 878.964 442.604 863.057 415.73 861.987C343.537 859.137 317.662 924.303 361.777 977.61C371.855 989.799 384.717 999.948 391.585 1014.54C399.423 1031.17 397.735 1051.52 391.799 1068.45L450.743 1023.31C447.124 1001.03 438.545 981.414 424.026 963.936C416.062 954.362 405.975 946.284 399.116 935.753C393.374 926.947 390.812 916.764 404.823 916.024C418.507 915.293 438.468 921.788 453.135 922.996C536.779 929.91 586.684 835.939 531.113 771.869C511.317 749.054 480.459 739.727 451.067 741.067C420.406 742.471 373.573 761.943 346.211 747.022C332.491 739.535 334.32 729.387 339.437 716.573C345.212 702.122 353.091 689.643 357.529 674.1C377.331 604.763 318.895 567.624 257.039 592.214C240.21 598.9 219.751 614.255 202.617 617.294C177.794 621.691 173.566 589.645 180.322 572.085C196.616 529.688 249.922 482.881 292.2 467.863C310.343 461.414 328.777 459.998 347.735 461.596C347.735 461.596 405.457 461.845 428.743 547.02C428.132 547.581 427.973 548.464 428.022 549.522C428.199 552.711 430.456 557.5 429.242 559.916C433.926 574.082 434.519 589.913 440.094 604.66C453.519 640.228 489.94 674.785 530.288 669.807C562.083 665.882 586.723 638.431 591.182 607.568C592.007 601.904 591.761 595.983 593.456 590.413C592.94 563.287 584.106 540.526 582.159 515.072C581.051 500.581 584.577 473.033 605.779 480.955C630.426 490.174 632.224 517.228 631.383 539.358C631.209 543.689 630.769 546.849 630.461 551.077C630.17 554.94 629.965 558.941 629.538 562.796C628.762 569.686 628.855 577.786 626.077 584.148C620.872 635.155 622.407 685.53 669.764 717.709C741.558 766.494 832.362 709.314 826.141 624.087C825.093 609.699 818.763 585.577 821.141 572.316C822.565 564.355 828.802 561.806 835.841 560.11C850.029 556.691 867.092 562.749 880.83 566.211C886.701 567.694 891.198 567.964 897.122 570.242C905.873 571.413 914.806 571.777 923.545 573.125C931.612 572.722 940.646 572.079 948.522 570.336C998.336 559.315 1038.95 518.197 1044.76 467.06C1044.76 467.06 1049.01 349.17 941.17 331.803C916.077 328.645 890.039 332.691 867.512 344.522C856.243 350.442 829.699 370.122 818.177 368.826C808.967 367.784 807.22 360.412 807.865 352.453C809.615 331.001 828.251 307.665 837.029 287.775C846.978 265.243 849.279 244.074 844.429 219.896C838.448 200.206 827.43 183.76 813.16 169.007C769.594 133.608 710.913 137.66 673.542 180.712C650.183 207.628 650.793 235.629 648.535 268.687C648.21 273.523 648.481 278.534 647.806 283.544C640.255 339.877 566.313 344.661 559.024 288.906C555.364 260.9 580.067 246.382 596.534 227.827C632.786 186.95 644.454 132.404 630.54 79.9777C630.316 79.1277 628.987 77.9734 629.106 76.6747L580.556 113.86C582.678 119.273 581.781 126.273 581.262 132.02L581.268 132.052Z" fill="#FF6C0A"/>
</g>
<defs>
<clipPath id="clip0_1_107">
<rect width="643.061" height="917.384" fill="white" transform="translate(391.799 1068.45) rotate(-127.449)"/>
</clipPath>
</defs>
</svg>
