<svg width="524" height="1024" viewBox="0 0 524 1024" fill="none" xmlns="http://www.w3.org/2000/svg">
<g clip-path="url(#clip0_1_109)">
<path d="M-100.364 99.6967C-96.6976 122.362 -100.598 145.137 -111.125 165.621C-128.383 199.188 -139.731 207.623 -141.468 247.749L-139.699 262.676C-130.717 289.683 -122.328 309.979 -97.6326 327.384C-27.8889 376.558 65.429 315.239 59.5959 233.078C58.0091 210.624 41.9991 171.836 51.1749 151.448C58.639 134.851 73.978 123.26 92.2692 122.922C110.922 122.585 127.946 136.343 134.312 153.579C135.472 156.72 137.184 161.914 135.75 165.086C139.619 173.293 124.83 217.808 122.911 230.001C116.909 268.269 130.79 314.783 172.189 326.088C197.14 332.902 220.366 324.177 240.086 308.234C260.245 291.952 274.878 266.234 302.494 262.662C307.679 259.439 313.93 261.072 319.365 261.301C390.962 264.235 408.844 357.699 344.923 388.984C326.127 398.174 297.495 395.33 276.65 395.673L259.223 397.738C224.136 406.443 195.083 424.472 190.639 463.588C187.483 491.384 201.989 513.265 210.492 538.2C230.963 598.282 154.418 629.573 125.712 577.258C121.422 569.442 115.782 551.503 115.583 542.819C114.212 541.757 114.386 540.353 114.149 538.89C109.907 512.631 109.436 485.669 101.965 459.91C89.707 417.664 57.6657 383.012 11.5419 380.964C-50.2494 378.219 -73.2808 438.604 -57.4037 490.459C-52.0907 507.799 -39.3457 525.151 -34.6806 541.694C-25.212 554.847 -19.3874 596.078 -46.409 589.04C-64.0709 584.449 -72.8152 572.019 -80.7735 557.24C-86.6272 546.383 -91.1914 535.002 -96.9463 524.262C-96.9463 524.262 -141.46 429.835 -249.195 426.745C-289.446 430.144 -327.894 448.935 -357.542 476.316C-407.424 522.394 -471.242 631.686 -421.929 696.375C-391.082 736.843 -346.203 738.176 -307.155 709.542C-290.183 697.087 -272.942 674.604 -252.595 669.605C-246.762 668.169 -243.741 668.151 -241.512 674.38C-236.489 688.465 -246.575 720.66 -247.469 737.543C-251.383 811.203 -182.556 832.798 -122.754 812.125C-98.0363 803.585 -60.9797 777.816 -35.5545 781.444C-11.375 784.891 4.82705 813.266 -8.53863 834.768C-25.6403 862.291 -53.367 852.718 -80.0407 858.403C-151.69 873.7 -160.778 944.216 -104.07 985.536C-91.1117 994.985 -75.93 1001.73 -65.5243 1014.35C-53.6533 1028.73 -50.2113 1049.14 -51.7991 1067.27L-5.19968 1008.14C-14.3406 987.151 -27.6863 970.029 -46.3338 956.496C-56.5588 949.085 -68.4946 943.677 -77.8741 935.048C-85.7231 927.835 -90.7931 918.472 -77.212 914.233C-63.9501 910.084 -42.7091 911.462 -27.9944 908.973C55.9239 894.798 81.4029 789.956 10.7403 740.933C-14.4292 723.478 -47.0881 722.048 -75.6311 730.734C-105.406 739.799 -146.542 770.671 -177.167 762.869C-192.524 758.951 -193.271 748.522 -191.456 734.649C-189.404 719.002 -184.79 704.766 -184.326 688.381C-182.25 615.289 -248.977 593.446 -303.59 633.112C-318.45 643.901 -334.704 664.116 -350.777 671.398C-374.065 681.94 -386.252 651.513 -384.016 632.565C-378.634 586.823 -337.99 527.469 -300.214 502.116C-284.003 491.231 -266.247 485.219 -247.217 482.037C-247.217 482.037 -190.44 467.812 -146.209 545.665C-146.668 546.369 -146.603 547.277 -146.29 548.304C-145.317 551.393 -141.899 555.533 -142.486 558.211C-134.333 570.956 -129.781 586.363 -120.607 599.454C-98.4997 631.037 -54.0509 655.862 -15.6544 640.856C14.6026 629.03 31.9315 595.881 28.5766 564.439C27.9669 558.667 26.2412 552.91 26.5108 547.012C19.2041 520.488 4.81819 500.339 -3.47546 475.816C-8.1963 461.855 -11.6376 433.904 11.1804 436.373C37.7093 439.253 46.2576 465.385 50.9787 487.34C51.8928 491.639 52.2527 494.854 53.0099 499.086C53.692 502.955 54.4941 506.937 55.0411 510.832C56.0051 517.797 58.1274 525.731 56.9923 532.679C64.6638 584.102 78.8 633.214 133.399 652.961C216.17 682.898 291.058 603.953 263.58 521.772C258.944 507.897 246.678 485.782 245.69 472.156C245.093 463.977 250.583 459.909 257.075 456.478C270.157 449.562 288.442 451.237 302.808 451.195C308.949 451.18 313.435 450.318 319.826 451.072C328.719 450.029 337.587 448.147 346.512 447.281C354.337 444.863 363.053 441.967 370.355 438.28C416.537 414.964 446.139 364.381 439.03 312.679C439.03 312.679 413.654 195.779 303.337 205.748C277.889 208.935 253.32 219.438 234.151 236.71C224.562 245.351 203.415 271.342 191.769 272.956C182.457 274.241 178.893 267.436 177.532 259.453C173.874 237.937 186.336 210.336 189.975 188.592C194.102 163.96 191.057 142.583 180.23 120.042C169.417 102.195 154.469 88.7973 136.749 77.8787C85.0693 54.0176 28.4274 72.7083 2.49974 124.378C-13.7052 156.68 -6.08653 184.04 -0.0184804 217.088C0.873906 221.921 2.39687 226.776 2.98992 231.869C9.69088 289.112 -61.7628 312.348 -82.9014 259.392C-93.5172 232.792 -72.8847 212.334 -61.3558 189.975C-35.9825 140.724 -38.1906 84.2038 -65.0041 36.1788C-65.4371 35.3998 -67.033 34.5989 -67.2411 33.2929L-105.624 81.9997C-102.182 86.7866 -101.308 93.8899 -100.378 99.6665L-100.364 99.6967Z" fill="#FF6C0A"/>
</g>
<defs>
<clipPath id="clip0_1_109">
<rect width="652.089" height="930.264" fill="white" transform="translate(-51.7991 1067.27) rotate(-141.761)"/>
</clipPath>
</defs>
</svg>
