<svg width="118" height="176" viewBox="0 0 118 176" fill="none" xmlns="http://www.w3.org/2000/svg">
<g clip-path="url(#clip0_37_77)">
<path d="M65.4576 7.71785C65.6293 7.92727 66.1822 7.04254 66.6057 6.98136C66.9256 6.9343 72.2497 7.76491 73.0072 7.92727C82.8719 10.0379 89.7675 17.0122 95.5573 24.9042C107.911 41.7446 101.15 57.8321 105.116 76.522C107.638 88.4024 114.334 93.8331 113.442 107.245C112.558 120.549 104.613 133.218 106.859 146.74L104.036 152.185C107.452 153.651 111.221 156.468 113.924 159.009C114.553 159.6 118.032 162.661 117.209 163.484C116.258 163.689 115.952 163.275 115.308 162.802C113.256 161.298 110.915 158.39 108.702 156.703C107.631 155.887 102.926 152.59 102.027 152.724C99.5592 154.185 97.1383 155.734 94.6492 157.16C93.9434 157.564 92.7412 157.705 92.2848 158.089C91.6025 158.663 91.2943 161.049 90.3933 162.315C86.215 168.169 72.5061 173.527 65.5517 174.647C46.7423 177.678 20.7127 177.169 12.3961 156.555C9.59881 149.623 10.1517 142.554 10.8692 135.253C7.15677 137.858 5.15938 142.385 2.17387 145.611C1.60924 146.22 0.997553 147.133 0.0541437 147.016C-0.105836 146.115 0.117665 145.644 0.510556 144.889C1.4375 143.1 5.58521 138.263 7.12148 136.444C8.119 135.262 9.36355 134.291 10.394 133.138C2.09859 126.003 2.44443 111.674 3.87248 101.664C4.3783 98.125 5.79459 94.9108 6.49803 91.5836C12.2173 64.5476 -2.35731 39.0528 18.1601 15.2451C28.0106 3.80716 41.4136 -2.29183 56.6093 0.797667C59.7901 1.44474 65.9752 3.7248 65.4576 7.71785ZM66.8692 25.603C66.8645 35.4527 61.5169 41.8082 54.1202 47.4436C49.6714 50.8343 45.286 52.4508 41.4701 56.9098C34.9721 64.5029 33.9298 73.202 31.8242 82.5575C30.9984 86.2282 29.1399 87.5035 30.7044 91.1836C37.2165 106.492 51.8452 121.836 69.7065 112.448C77.2467 108.485 86.8078 93.9719 87.9818 85.5482C89.6004 73.9173 89.6028 62.0181 88.8852 50.4202C85.3021 43.3235 77.5408 40.4999 72.2709 35.0221L66.8715 25.6077L66.8692 25.603ZM17.5202 132.491C17.0379 145.809 23.8064 153.672 35.3297 159.028C44.6132 163.341 61.5169 163.828 69.9323 157.381C72.5179 155.399 72.8543 155.642 75.6469 154.155C76.4986 153.701 78.8159 152.263 79.0347 151.39C77.896 147.936 76.2798 145.051 75.5528 141.387C74.2659 134.91 74.4729 127.535 75.4705 121.036C76.1974 116.304 77.7125 111.704 78.623 107.017C71.558 115.102 61.9969 118.749 51.3582 115.702C47.7375 114.664 44.5426 112.356 41.4606 110.311C41.4512 111.422 42.4488 111.808 42.8911 112.876C44.8743 117.643 43.9215 120.069 43.7686 124.665C43.7215 126.093 44.9355 127.674 43.8368 128.933C42.9593 129.556 37.8611 128.168 36.1225 128.232C34.2522 128.3 18.0377 131.691 17.5202 132.493V132.491Z" fill="#043AD6"/>
<path d="M53.2615 95.7602C53.6803 95.4638 58.9808 97.5485 60.5335 97.6097C62.0863 97.6709 66.8951 96.1226 66.8857 98.3109C66.8715 102.078 53.4238 101.782 52.831 97.7321C52.7698 97.3156 53.0639 95.8991 53.2592 95.7602H53.2615Z" fill="#043AD6"/>
<path d="M82.8601 53.3638C79.764 53.2838 76.8397 51.4438 73.6683 51.7191C72.1932 51.8461 71.1604 53.2909 69.5253 52.9262L68.8313 51.3144C70.2829 49.3872 73.6119 47.9166 75.9951 48.199C77.2514 48.3472 83.9329 52.4226 82.8601 53.3638Z" fill="#043AD6"/>
<path d="M63.6883 79.3598C66.6597 76.6162 70.2145 81.8375 69.1206 85.5082C68.7747 86.6659 65.6975 89.5083 64.5235 87.4847C65.4928 86.3365 67.4855 85.2117 67.1373 83.4823C66.5138 80.3834 63.1731 81.3599 63.1143 80.4281C63.4554 80.1786 63.446 79.5833 63.6883 79.3598Z" fill="#043AD6"/>
<path d="M74.2423 61.4346C77.0443 61.1923 77.2513 69.0442 74.6352 69.2419C71.7485 69.4607 70.7298 61.7382 74.2423 61.4346Z" fill="#043AD6"/>
<path d="M44.5825 61.404C46.9987 60.997 47.641 69.2984 45.006 69.3689C41.1194 69.4725 42.1452 61.8158 44.5825 61.404Z" fill="#043AD6"/>
</g>
<defs>
<clipPath id="clip0_37_77">
<rect width="117.333" height="176" fill="white"/>
</clipPath>
</defs>
</svg>
