<svg width="136" height="178" viewBox="0 0 136 178" fill="none" xmlns="http://www.w3.org/2000/svg"> <path d="M6.14938 160.33C7.34464 151.93 18.8127 139.9 26.4473 136.723C29.2471 135.559 32.639 135.139 35.5787 133.965C39.0784 132.565 42.2227 130.099 45.9161 129.065C46.0238 128.096 44.8716 128.667 44.344 128.785C42.578 129.184 40.5751 130.153 38.8092 130.487C29.8931 132.199 10.7151 131.305 3.55426 125.199C2.70357 124.477 0.668395 122.732 1.00221 121.634C6.7524 117.617 4.0819 109.184 4.56646 102.948C5.49252 91.2518 14.9362 87.2023 16.4007 75.517C17.4452 67.1164 17.0144 63.1638 21.5478 55.3449C26.7488 46.352 35.8372 42.561 40.4998 33.9989C41.9535 31.3279 42.6642 28.2693 43.9994 25.6091C50.2234 13.2021 63.0913 -3.71745 79.2005 1.48443C80.6542 1.95831 82.6571 3.76766 83.9385 3.8969C85.2199 4.02613 87.5027 2.91683 89.5594 2.98145C100.564 3.28301 107.941 11.3174 111.268 21.0749C113.809 28.5385 116.049 36.5406 118.86 43.9718C120.356 47.9352 123.124 50.9184 123.404 55.431C123.565 57.9404 122.865 59.8898 122.833 62.1622C122.736 68.495 132.815 78.0587 134.904 84.7468C137.833 94.1059 133.407 103.271 134.215 112.307C134.452 114.924 135.561 117.778 135.776 120.557C135.992 123.335 135.992 131.047 134.689 133.416C132.427 137.53 120.916 134.041 116.921 133.739C110.579 133.265 103.795 134.525 97.5709 132.436C97.1079 132.285 93.1775 129.539 93.9528 131.402C95.2558 134.504 105.453 135.893 108.522 136.97C114.068 138.92 122.693 146.771 125.665 151.854C128.637 156.938 129.854 162.721 129.574 168.343C128.077 170.066 127.431 161.763 127.269 161.095C124.297 148.753 113.486 139.243 101.178 136.83C98.2063 148.246 102.298 160.104 107.101 170.432C108.167 172.737 111.376 175.225 108.576 177.077L20.6541 176.076C19.8142 172.769 22.6246 171.639 23.9384 169.883C28.0626 164.337 33.9743 155.979 34.5881 149C34.9434 144.94 34.2112 140.869 34.0496 136.841C25.6074 137.369 15.8838 145.382 11.6304 152.382C10.8551 153.653 7.71076 159.867 7.71076 160.869V169.657L6.93546 170.422L6.16015 169.657C6.45089 166.738 5.76173 163.163 6.16015 160.352L6.14938 160.33ZM100.134 79.9973C100.134 79.0387 100.629 78.1771 100.608 77.2078C100.543 73.3199 99.9399 59.9544 98.4109 57.1758C97.2264 55.0218 95.3419 54.0309 94.0175 51.2415C90.5716 44.0257 87.8042 29.5401 78.5759 26.9122C73.7733 25.5445 70.1337 27.9892 66.5694 31.1664C58.1703 38.6622 57.3519 47.9675 53.6692 57.5312C51.2356 63.8639 47.9729 66.3625 42.9118 70.5089C45.3347 79.448 46.993 89.2163 50.6326 97.7461C52.7001 102.593 55.629 106.416 58.601 110.433C61.2284 113.987 68.4754 116.206 72.6427 115.312C76.81 114.418 84.0461 107.762 86.6843 104.52C92.4561 97.4661 95.0727 88.3547 98.3247 79.9757L100.123 79.9973H100.134ZM42.298 74.3L41.5227 71.7259L39.1968 74.8169L42.298 74.3ZM42.8149 76.3786L41.0705 75.9262C38.6907 76.4432 39.4553 85.6084 42.1042 80.245L40.7582 77.4125L42.8149 76.3786ZM99.1108 87.7301L103.213 84.316C101.028 82.0974 104.613 80.9989 102.46 78.9526C101.437 82.022 101.243 85.1022 99.1108 87.7301ZM45.9161 89.2809L43.5902 81.5374L40.2413 83.8529C41.2105 86.4377 42.8149 89.2809 45.9161 89.2809ZM58.3103 113.05C57.578 122.248 49.9327 129.485 41.7919 132.931C45.9269 139.717 55.1875 141.774 62.5314 143.174C68.9815 144.412 75.184 144.897 81.7525 143.981C87.5889 143.174 91.2177 138.51 95.4819 134.999C88.0842 128.85 85.4891 118.263 85.1553 108.904C77.5745 117.11 67.8832 120.406 58.3103 113.039V113.05Z" fill="#043AD6"/> <path d="M75.8624 84.122C76.3147 86.8468 72.3843 87.0622 70.4568 86.6853C66.3434 85.8883 66.9033 77.6924 67.0648 74.5368C67.151 72.792 68.0447 63.7668 69.4123 63.4545C71.4582 62.9806 69.843 65.4577 69.7784 65.8885C69.1754 69.6903 67.2694 82.0219 70.1338 84.4236C72.3412 86.2652 73.5688 84.1543 75.8624 84.122Z" fill="#043AD6"/> <path d="M60.3778 91.8763C61.4654 90.864 62.693 92.921 63.436 93.1903C67.9586 94.8381 73.9565 93.4272 78.4576 92.1456C79.2436 91.9194 83.6478 89.4531 83.6047 91.1117C79.2544 95.2796 67.4848 96.8413 62.1546 94.5042C61.3254 94.138 59.5056 92.7056 60.3778 91.8979V91.8763Z" fill="#043AD6"/> <path d="M67.5278 57.8434C67.7432 58.1988 67.5601 58.845 67.6032 59.3189C62.6176 58.2958 60.7654 56.4972 55.9736 59.3189C54.5307 60.1697 54.1107 58.3496 55.5321 57.3157C57.6642 55.7756 66.3972 56.0018 67.5278 57.8434Z" fill="#043AD6"/> <path d="M95.9988 57.768C91.7346 56.3248 87.8042 57.9188 83.6047 58.2849C81.7202 56.7018 91.9069 55.1832 92.6499 55.1832C94.179 55.194 96.4834 55.8294 95.9988 57.768Z" fill="#043AD6"/> <path d="M88.7195 66.1039C89.6025 67.4609 87.7073 72.4582 85.2199 70.6273C83.7339 68.1287 87.3412 63.9715 88.7195 66.1039Z" fill="#043AD6"/> <path d="M59.4733 70.0349C58.515 69.0441 58.8596 67.2348 59.3872 66.0824C61.7024 65.5439 63.2099 67.504 62.1761 69.6472C61.627 70.7242 60.2917 70.8858 59.4626 70.0349H59.4733Z" fill="#043AD6"/> <path d="M73.278 99.1138C74.7533 101.171 66.7741 101.095 66.5695 98.8553C66.7094 98.0045 70.2522 98.4999 70.9521 98.5968C71.7597 98.7045 72.4919 98.9522 73.278 99.1138Z" fill="#043AD6"/> </svg>