<?xml version="1.0" encoding="UTF-8"?>
<svg id="Ebene_1" xmlns="http://www.w3.org/2000/svg" version="1.1" viewBox="0 0 841.89 1190.55">
  <!-- Generator: Adobe Illustrator 29.0.0, SVG Export Plug-In . SVG Version: 2.1.0 Build 186)  -->
  <defs>
    <style>
      .st0 {
        fill: #fff;
      }
    </style>
  </defs>
  <path class="st0" d="M159,212.55V83.55h524v1024H159v-125c68.49-31.45,67.72-131.71,0-164v-104c13.4-8.54,22.68-24.82,26.33-40.17,9.03-38.02-10.04-71.11-26.33-103.83v-49c19.41-7.44,36.31,7.76,43.86,24.64,18.05,40.41,10.27,90.24,29.97,134.03,47.9,106.48,204.5,66.73,195.05-49.05-2.19-26.79-17.04-44.81-22.41-68.59-2.74-12.12.03-18.22,11.54-23.53,18.46-8.52,42.09-3.07,61.5-4.5,81.64-5.99,144.83-84.5,110.36-164.36-30.65-71.01-102.92-104.34-173.88-65.16-21.06,11.63-30.75,27.3-47.96,42.04-7.91,6.77-22.35,16.97-28.9,2.88-8.26-17.76,4.41-49.05,8.4-67.38,9.63-44.19.93-81.5-35.04-109.98-52.47-41.55-125.8-19.21-152.47,39.97Z"/>
  <path d="M159,521.55v-57c50.59-3.05,88.25,32.31,101.72,78.78,10.59,36.55,6.43,102.69,32.26,129.74,23.89,25.02,66.34,16.45,77.8-16.25,11.06-31.54-18-62-20.76-92.79-3.75-41.89,20.28-68.82,58.99-79.98,23.51-6.77,43.15-2.96,66.49-4.51,87.49-5.83,90.86-124.33,7.88-134.86-60.69-7.71-72.14,61.67-128,66.74-51.73,4.7-77.5-42.31-74.41-88.41,1.67-24.89,20.73-62.15,13.08-85-10.07-30.07-46.16-42.24-71.05-20.97-30.22,25.82-9.15,62.26-5.1,94.13,5.55,43.74-19.03,87.93-58.88,106.38v-76c6.02-12.51,4.35-27.26,0-40v-89c26.67-59.19,100-81.52,152.47-39.97,35.97,28.48,44.67,65.8,35.04,109.98-3.99,18.33-16.66,49.62-8.4,67.38,6.55,14.09,20.99,3.9,28.9-2.88,17.22-14.74,26.9-30.41,47.96-42.04,70.96-39.18,143.23-5.85,173.88,65.16,34.48,79.86-28.72,158.37-110.36,164.36-19.41,1.42-43.04-4.02-61.5,4.5-11.51,5.31-14.27,11.41-11.54,23.53,5.37,23.78,20.22,41.81,22.41,68.59,9.45,115.78-147.15,155.53-195.05,49.05-19.7-43.79-11.92-93.62-29.97-134.03-7.54-16.88-24.45-32.09-43.86-24.64Z"/>
  <path class="st0" d="M159,464.55v-47c39.85-18.45,64.43-62.64,58.88-106.38-4.04-31.87-25.11-68.31,5.1-94.13,24.89-21.26,60.98-9.1,71.05,20.97,7.65,22.85-11.41,60.1-13.08,85-3.09,46.1,22.68,93.11,74.41,88.41,55.86-5.07,67.31-74.45,128-66.74,82.98,10.54,79.61,129.03-7.88,134.86-23.33,1.56-42.98-2.26-66.49,4.51-38.71,11.16-62.74,38.09-58.99,79.98,2.76,30.79,31.82,61.25,20.76,92.79-11.47,32.7-53.91,41.27-77.8,16.25-25.83-27.05-21.67-93.2-32.26-129.74-13.46-46.47-51.12-81.84-101.72-78.78Z"/>
  <path d="M159,982.55v-164c67.72,32.29,68.49,132.55,0,164Z"/>
  <path d="M159,714.55v-144c16.28,32.71,35.35,65.81,26.33,103.83-3.65,15.36-12.92,31.63-26.33,40.17Z"/>
  <path class="st0" d="M159,341.55v-40c4.35,12.74,6.02,27.49,0,40Z"/>
</svg>