<?xml version="1.0" encoding="UTF-8"?>
<svg id="Ebene_1" xmlns="http://www.w3.org/2000/svg" version="1.1" viewBox="0 0 841.89 1190.55">
  <!-- Generator: Adobe Illustrator 29.0.0, SVG Export Plug-In . SVG Version: 2.1.0 Build 186)  -->
  <defs>
    <style>
      .st0 {
        fill: #fff;
      }
    </style>
  </defs>
  <path class="st0" d="M417,1003.55h-228V186.55h463v36c-5.16,1.14-2.09,3.11-2,6.51.19,7.28-.13,14.53-1.27,21.72-11.31,71.26-90.09,75.38-73.41,164.96,7.29,39.11,37.36,69.76,76.68,76.82v44c-33.1,7.8-51.67,38.57-55.87,70.63-4.01,30.6,8.79,55.5,10.86,84.89.95,13.56-3.88,40.36-22.98,32.97-27.22-10.52-28.85-49.23-34.69-73.31-24.6-101.32-113.19-161.63-215.58-121.95-66.38,25.73-164.99,120.34-139.19,198.72,16.01,48.63,60.22,64.18,106.71,46.79,17.87-6.69,49.4-29.78,67.82-25.31,11.16,2.71,3.12,22.37.42,29.54-5.09,13.53-13.18,25.93-16.98,40.02-20.03,74.21,49.91,105.78,112.7,96.7,24.88-3.6,64.32-18.61,86.52-2.94,22.69,16.02,21.53,48.98-3.69,61.77-20.86,10.58-42.29-1.31-63.55-2.53-24.6-1.41-55.62,7.75-67.49,30.99Z"/>
  <path d="M652,536.55v69c-3.63,10.09-2.54,23.62,0,34v102c-22.72,39.85-67.33,51.39-105.32,23.82-14.49-10.52-28.65-27.68-35.86-44.14-12.6-28.77-10.08-61.35-22.97-90.03-34.5-76.74-109.97-73.39-171.17-29.46-27.17,19.5-75.01,66.12-71.56,102.19,4.82,50.5,57.15,8.1,79.89-.86,68.57-27.01,123.58,18.84,97,91-4.42,11.99-19.29,36.74-19.05,47.94.32,14.38,19.59,20.72,31.49,21.58,34.82,2.53,68.19-15.59,104.91-10.91,75.4,9.61,108.94,92.66,59.63,150.87h-182c11.87-23.24,42.89-32.4,67.49-30.99,21.26,1.22,42.69,13.11,63.55,2.53,25.22-12.79,26.38-45.75,3.69-61.77-22.2-15.67-61.64-.66-86.52,2.94-62.8,9.08-132.73-22.5-112.7-96.7,3.8-14.09,11.89-26.49,16.98-40.02,2.7-7.17,10.74-26.84-.42-29.54-18.42-4.47-49.95,18.62-67.82,25.31-46.49,17.39-90.7,1.84-106.71-46.79-25.8-78.38,72.81-173,139.19-198.72,102.39-39.68,190.99,20.62,215.58,121.95,5.84,24.07,7.48,62.78,34.69,73.31,19.09,7.38,23.93-19.41,22.98-32.97-2.06-29.39-14.86-54.29-10.86-84.89,4.2-32.06,22.77-62.83,55.87-70.63Z"/>
  <path class="st0" d="M652,741.55v262h-53c49.31-58.21,15.77-141.26-59.63-150.87-36.72-4.68-70.09,13.44-104.91,10.91-11.91-.86-31.17-7.2-31.49-21.58-.25-11.2,14.63-35.95,19.05-47.94,26.58-72.17-28.43-118.02-97-91-22.74,8.96-75.07,51.36-79.89.86-3.44-36.07,44.4-82.69,71.56-102.19,61.2-43.93,136.68-47.28,171.17,29.46,12.89,28.68,10.37,61.26,22.97,90.03,7.21,16.46,21.37,33.63,35.86,44.14,37.98,27.57,82.59,16.04,105.32-23.82Z"/>
  <path d="M652,351.55c-10.02,8.1-21.34,19.98-24.53,32.97-4.71,19.16,5.42,43.88,24.53,51.03v57c-39.33-7.06-69.4-37.7-76.68-76.82-16.69-89.58,62.1-93.7,73.41-164.96,1.14-7.19,1.47-14.44,1.27-21.72-.09-3.39-3.16-5.37,2-6.51v129Z"/>
  <path class="st0" d="M652,435.55c-19.12-7.16-29.25-31.87-24.53-51.03,3.2-12.99,14.51-24.87,24.53-32.97v84Z"/>
  <path class="st0" d="M652,639.55c-2.54-10.38-3.63-23.91,0-34v34Z"/>
</svg>