<?xml version="1.0" encoding="UTF-8"?><svg id="Ebene_1" xmlns="http://www.w3.org/2000/svg" xmlns:xlink="http://www.w3.org/1999/xlink" viewBox="0 0 1643.13 692.42"><defs><style>.cls-1{fill:#043ad6;}.cls-2{fill:#ff6c0a;}</style></defs><path class="cls-2" d="M0,70.17c6.67,10.18,16.93,19.48,29.13,22.13,10.69,2.32,21.46-.42,32.18-.82,46.9-1.77,71.32,39.04,40.01,76.74-11.66,14.03-30.18,20.48-27.78,42.02,1.88,16.84,22.14,25.03,36.27,16.83,14.86-8.62,23.66-37.49,33.11-52.22,22.85-35.61,67.96-52.77,96.4-12.45,6.51,9.24,14.54,30.33,23.02,35.65,3.75,2.36,5.33,1.1,7.8-2.08,8.61-11.05,8.36-30.01,12.13-43.57,8.66-31.2,32.78-49.08,65.75-40.6,52.69,13.57,64.41,97.41,57.28,142.27-4.24,26.66-16.66,52.44-36.4,70.9-.87.1-1.15-.05-1.76-.62-.65-.61-3.5-6.9-4.55-8.49-4.89-7.41-10.95-13.35-17.63-19.15,8.68-9.55,15.52-20.06,19.53-32.49,9.35-28.97,6.13-76.98-9.98-103.23-6.68-10.88-25.67-21.83-33.54-6.64-5.43,10.48-5.6,27.83-8.94,39.65-12.27,43.45-56.37,59.6-85.54,20.34-6.54-8.8-10-18.19-15.41-27.26-4.79-8.04-9.5-13.21-19.19-8.91-19.32,8.57-28.15,41.83-40.04,58.92s-29.15,29.15-49.6,30.4c-57.42,3.5-87.44-62.13-49.22-104.32,6.7-7.39,18.42-15.47,23.68-23.14s-1.15-10.67-8.27-11.21c-8.5-.65-17.01,1.46-25.45,1.79-15.4.62-29.5-2.86-42.99-10.1v-50.36Z"/><path class="cls-2" d="M291.58,308.95c.56-.5,1.58-1.37,2.23-1.62,2.92-1.11,17.1-4.62,20.08-4.83,6.32-.45,14.42,2.23,20.69,1.74,5.89-.46,4.55-4.94,10.94.26,4.35,3.54,10.22,11.19,12.91,16.13.69,1.26,2.93,5.38,3.09,6.45.54,3.71-7.91,8.48-8.89,11.5-1.99-.22-4.3-1.56-6.07-2.53-12.84-6.98-25.66-14.01-38.73-20.56-1.7-.23-2.99.1-4.54.72-5.62,2.26-12.19,8.37-17.8,11.24-3.01,1.4-4.66-.76-3.72-3.71.65-2.04,8.18-13.34,9.81-14.79Z"/><path class="cls-2" d="M280.32,350.43c.31-.45,2.68-3.12,2.97-3.25,3.18-1.48,7.11,1.62,5.92,5.03-3.03,5.54-6.62,10.78-9.2,16.58-4.14,3.6-8.47,1.46-7.25-4.3.23-1.07,6.59-12.63,7.57-14.06Z"/><path class="cls-2" d="M295.13,354.57c4.9,2.51.82,8.83-1.19,12.44-1.67,3-3.39,6.51-6.86,7.72-1.91.16-4.48-3.1-4.25-4.98.1-.82,7.33-13.61,8.13-14.32,1.51-1.34,2.44-.74,4.17-.87Z"/><path class="cls-2" d="M267.28,350.43c1.78-2.33,4.55-3.1,7.32-1.83,1.21,1.85,1.12,3.98.38,5.98-.37,1-4.25,7.59-4.91,8.12-3.07,2.43-7.32-.48-6.83-4.13.06-.45,3.66-7.64,4.03-8.13Z"/><path class="cls-2" d="M295.72,369.39c1.77-3.45,3.21-6.32,7.56-4.01.59.59.86,2.58.73,3.42-.32,2.04-4.11,7.76-6.83,7.75-4.48-.02-2.68-4.8-1.47-7.15Z"/><path class="cls-1" d="M258.39,300.06c1.07,2.2,6.95,2.82,7.16,5.05-.12,2.26-2.6,3.32-3.85,5.06-.89,1.24-1.41,3.04-2.12,4.11-1.58,2.39-2.18,3.36-3.56,5.93-.2.37-1.15,1-1.71,2.14-.98,2.03-5.03,14.19-5.77,14.42-7.47-3.26-14.58-7.35-22.15-10.63-10.3-4.46-20.04-7.37-31.22-2.48-17.11,7.49,3.02,26.74,13.44,29.73,9.3,6.77,23.18,10.6,33.15,17.51,29.81,20.67,42.71,61.93,9.11,86.07-25.08,18.02-56.26,13.08-80.19-4.04-14.6-10.44-26.01-24.41-39.1-36.45-.73-.67-1.22-1.48-2.38-1.47-3.7-4.49-14.09-11.57-19.58-13.9-36.75-15.6-64.01,32.53-28.37,55.62,14.78,9.58,31.47,15.07,41.32,30.98,13.85,22.39,6.06,43.89-8.77,62.99l-8.3,8.3c-10.81,8.81-27.04,19.17-33.1,31.78-20.63,42.9,27.46,84.6,66.29,56.5,2.95-2.13,6.9-3.87,8.3-7.7,13.03-13.31,10.08-32.88,13.92-49.78s12.35-30.74,28.28-37.49c26.44-11.21,52.99,7.49,65.67,30.08,4.04,7.2,14.7,36.71,20.13,39.42.55,2.26,3.6,4.28,5.52,5.45,10.49,6.42,25.13,6.6,34.78-1.3,9.47-7.75,12.73-20.19,9.78-32-3.63-14.51-28.09-28.27-38.22-39.4-37.08-40.75-13.44-111.6,43.56-114.64,20.18-1.08,32.99,6.12,48.89,16.58l7.11,7.11c15.7,21.8,13.23,30.93,18.06,55.71,2.95,15.13,10.33,28.7,21.64,39.09,2.88,2.65,6.29,6.02,10.07,7.11v41.48c-.65-.6-1.82-.36-2.37-.59-33.98-14.13-58.54-42.91-65.59-79.29-3.21-16.52-.83-35.81-17.42-45.39-33.03-19.07-60.95,22.72-33.73,50.02,2.42,2.43,5.24,4.34,7.7,6.52,16.87,14.85,32.2,26.07,37.06,49.75,7.77,37.88-14.26,71.15-51.28,80.01-13.83,1.6-27.23.75-40.3-4.15-15.02-7.36-25.47-17.33-33.5-31.98-7.09-12.93-11.97-32.59-22.8-42.38-4.02-3.63-8.71-5.73-13.07-1.2-5.45,5.66-5.8,28.08-7.26,36.59-2.92,17.01-11.48,32.7-23.53,44.91H54.52c-25.14-24.22-30.53-63.06-15.92-94.42,2.31-4.97,5.7-10.09,8.8-14.6,4.33-4.14,8.21-8.81,12.45-13.04,3.67-2.26,5.67-4.56,8.89-7.11,7.54-5.97,17.83-12.66,21.84-21.71,1.99-4.48,3.18-8.89-.51-12.95-6.15-6.74-21.76-13.29-29.94-18.66-48.47-31.8-41.8-104.28,14.08-122.82,36.86-12.23,64.62,7.72,89.94,31.56,2.29,4.12,6.68,7.4,10.07,10.67,1.89,1.82,3.96,3.58,5.93,5.33,2.14,1.92,3.66,3.46,5.93,5.33,11.57,9.58,26.87,19.77,42.01,10.3,13.02-8.15-.37-21.41-8.63-26.79-14.51-9.45-30.41-14.08-45.23-24.99-2.29-3.2-5.59-5.52-8.3-8.3-14.78-15.14-19.4-39.73-8.4-58.46,13.96-23.78,47.59-29.14,72.28-21.7,10.24,3.09,19.01,9.3,28.57,12.61Z"/><path class="cls-1" d="M349.65,349.83l-3.56.32c-7.04-2.07-16.54-9.63-23.09-11.31-.63-.16-1.2-.52-1.82,0-.65.46-.83,1.95-.45,2.61.88,1.53,17.77,8.09,20.34,10.16,1.58,1.39,1.6,3.37,1.47,5.34-1.53,1.84-3.16,2.12-5.33,2.37-2.57-1.34-19.42-9.6-20.74-8.29-.09,1.17-.12,2.14.85,2.99,1.31,1.14,8.52,3.46,10.81,4.6,3.37,1.68,7.01,2.58,6.12,7.21-3.9,6.99-17.01-4.4-20.99-3.49-1.09.25-1.24,2.06-.67,2.93.77,1.11,8.26,2.73,9.78,3.85,1.61,1.18,1.75,4.26-.39,4.89-1.35.4-15.71-.41-16.18-1.07,1.03-2.65,1.82-5.44.92-8.32s-4.66-2.89-5.37-4.11c-.64-1.08-.13-2.88-1.47-5.34-2.52-4.61-4.79-2.43-6.88-4.09-1.52-1.21-.52-5.14-5.4-7.04-4.21-1.65-6.58.53-9.44,3.39-4.75-4.08-7.77-3.22-12.93-.52-.52,0-.87-.29-1.26-.58s-6.4-7.05-6.68-7.53c-.73-1.21-1.02-2.23-.88-3.66.65-6.55,7.51-19.93,12.4-24.36,3.01-2.72,4.52-.46,7.1-.09,2.84.41,6.81.04,9.13,1.52.05.86-6.51,9.23-6.99,11.39-.88,3.96,2.1,7.7,6.12,7.58s15.57-9.8,19.87-11.84l3.69-.19,42.22,22.37c2.82,2.35,2.32,6-.31,8.31Z"/><path class="cls-1" d="M54.52,669.79s61.73,50.91,115.56,0"/><image width="736" height="1041" transform="translate(1268.43 75.9) scale(.51)" xlink:href="../Downloads/Wavy Graphic Poster | Graphic Design | Poster Design | Photoshop &amp; Illustrator.jpg"/><path class="cls-2" d="M1023.27,549.56c-11.31-10.39-18.69-23.97-21.64-39.09-4.83-24.78-2.36-33.91-18.06-55.71l-7.11-7.11c-15.9-10.47-28.71-17.66-48.89-16.58-57,3.04-80.64,73.89-43.56,114.64,10.13,11.14,34.6,24.89,38.22,39.4,2.95,11.81-.31,24.25-9.78,32-9.66,7.9-24.3,7.72-34.78,1.3-1.91-1.17-4.96-3.19-5.52-5.45-5.43-2.71-16.09-32.22-20.13-39.42-12.69-22.59-39.24-41.28-65.67-30.08-15.93,6.75-24.52,20.95-28.28,37.49-3.85,16.9-.89,36.47-13.92,49.78-1.39,3.84-5.35,5.57-8.3,7.7-38.83,28.1-86.92-13.6-66.29-56.5,6.07-12.61,22.29-22.97,33.1-31.78l8.3-8.3c14.83-19.1,22.63-40.6,8.77-62.99-9.85-15.91-26.53-21.4-41.32-30.98-35.63-23.09-8.37-71.22,28.37-55.62,5.49,2.33,15.88,9.42,19.58,13.9,1.16-.01,1.65.8,2.38,1.47,13.1,12.04,24.51,26.01,39.1,36.45,23.93,17.12,55.11,22.06,80.19,4.04,33.6-24.14,20.7-65.4-9.11-86.07-9.97-6.91-23.85-10.75-33.15-17.51-10.42-2.99-30.55-22.24-13.44-29.73,11.18-4.9,20.92-1.99,31.22,2.48,7.57,3.28,14.68,7.37,22.15,10.63,0,0,62.48,31.18,120.36-11.8,19.74-18.45,32.16-44.24,36.4-70.9,7.13-44.86-4.59-128.7-57.28-142.27-32.96-8.49-57.09,9.39-65.75,40.6-3.76,13.57-3.51,32.52-12.13,43.57-2.47,3.17-4.05,4.43-7.8,2.08-8.47-5.32-16.5-26.41-23.02-35.65-28.44-40.32-73.54-23.17-96.4,12.45-9.45,14.72-18.25,43.6-33.11,52.22-14.13,8.2-34.39,0-36.27-16.83-2.41-21.54,16.12-27.99,27.78-42.02,31.31-37.7,6.89-78.51-40.01-76.74-10.72.4-21.49,3.14-32.18.82-12.21-2.64-22.46-11.95-29.13-22.13v50.36c13.49,7.24,27.59,10.71,42.99,10.1,8.44-.34,16.95-2.44,25.45-1.79,7.11.54,13.65,3.36,8.27,11.21-5.25,7.67-16.98,15.74-23.68,23.14-38.22,42.19-8.2,107.82,49.22,104.32,20.45-1.25,38.2-14.02,49.6-30.4,11.89-17.09,20.72-50.34,40.04-58.92,9.69-4.3,14.4.87,19.19,8.91,5.4,9.07,8.87,18.46,15.41,27.26,29.17,39.26,73.27,23.11,85.54-20.34,3.34-11.82,3.51-29.17,8.94-39.65,7.87-15.18,26.87-4.24,33.54,6.64,16.11,26.26,19.33,74.27,9.98,103.23-4.01,12.43-10.85,22.94-19.53,32.49,0,0-23.94,30.98-79.41,8.39-.05-.56-.46-1.01-1.05-1.42-1.79-1.22-5.3-1.98-6.1-3.63-9.56-3.32-18.33-9.53-28.57-12.61-24.69-7.44-58.32-2.08-72.28,21.7-11,18.74-6.38,43.33,8.4,58.46,2.71,2.78,6,5.09,8.3,8.3,14.82,10.91,30.72,15.54,45.23,24.99,8.26,5.38,21.64,18.64,8.63,26.79-15.13,9.47-30.44-.72-42.01-10.3-2.26-1.88-3.78-3.42-5.93-5.33-1.96-1.75-4.03-3.51-5.93-5.33-3.39-3.26-7.79-6.55-10.07-10.67-25.32-23.84-53.08-43.79-89.94-31.56-55.88,18.54-62.54,91.02-14.08,122.82,8.18,5.37,23.78,11.91,29.94,18.66,3.7,4.05,2.5,8.46.51,12.95-4.01,9.05-14.31,15.74-21.84,21.71-3.22,2.55-5.22,4.86-8.89,7.11-4.24,4.23-8.12,8.89-12.45,13.04-3.11,4.51-6.49,9.64-8.8,14.6-14.61,31.37-9.22,70.2,15.92,94.42,0,0,61.73,50.91,115.56,0,12.05-12.21,20.61-27.9,23.53-44.91,1.46-8.51,1.81-30.92,7.26-36.59,4.36-4.53,9.05-2.43,13.07,1.2,10.83,9.79,15.71,29.45,22.8,42.38,8.03,14.65,18.48,24.62,33.5,31.98,13.07,4.9,26.47,5.75,40.3,4.15,37.03-8.86,59.05-42.13,51.28-80.01-4.86-23.68-20.19-34.9-37.06-49.75-2.47-2.17-5.28-4.09-7.7-6.52-27.22-27.3.7-69.09,33.73-50.02,16.59,9.58,14.22,28.87,17.42,45.39,7.06,36.38,31.62,65.16,65.59,79.29.55.23,1.72-.01,2.37.59v-41.48c-3.79-1.09-7.19-4.46-10.07-7.11Z"/></svg>